# This file uses centimeters as units for non-parametric coordinates.

mtllib window.mtl
g default
v 65.860626 -8.593836 17.564798
v 65.968842 -8.593836 17.564798
v 65.860626 9.030983 17.564798
v 65.968842 9.030983 17.564798
v 65.860626 9.030983 -18.523336
v 65.968842 9.030983 -18.523336
v 65.860626 -8.593836 -18.523336
v 65.968842 -8.593836 -18.523336
vt 0.001891 0.001993
vt 0.331371 0.001993
vt 0.331371 0.331473
vt 0.001891 0.331473
vt 0.338707 0.001991
vt 0.668187 0.001991
vt 0.668187 0.331472
vt 0.338707 0.331472
vt 0.617663 0.335260
vt 0.947143 0.335260
vt 0.947143 0.664740
vt 0.617663 0.664740
vt 0.282361 0.335260
vt 0.611841 0.335260
vt 0.611841 0.664740
vt 0.282361 0.664740
vt 0.001891 0.668528
vt 0.331371 0.668528
vt 0.331371 0.998008
vt 0.001891 0.998008
vt 0.338707 0.668528
vt 0.668187 0.668528
vt 0.668187 0.998008
vt 0.338707 0.998008
vn 0.000000 0.000000 1.000000
vn 0.000000 0.000000 1.000000
vn 0.000000 0.000000 1.000000
vn 0.000000 0.000000 1.000000
vn 0.000000 1.000000 0.000000
vn 0.000000 1.000000 0.000000
vn 0.000000 1.000000 0.000000
vn 0.000000 1.000000 0.000000
vn 0.000000 0.000000 -1.000000
vn 0.000000 0.000000 -1.000000
vn 0.000000 0.000000 -1.000000
vn 0.000000 0.000000 -1.000000
vn 0.000000 -1.000000 0.000000
vn 0.000000 -1.000000 0.000000
vn 0.000000 -1.000000 0.000000
vn 0.000000 -1.000000 0.000000
vn 1.000000 0.000000 0.000000
vn 1.000000 0.000000 0.000000
vn 1.000000 0.000000 0.000000
vn 1.000000 0.000000 0.000000
vn -1.000000 0.000000 0.000000
vn -1.000000 0.000000 0.000000
vn -1.000000 0.000000 0.000000
vn -1.000000 0.000000 0.000000
s off
g polySurface3 polySurface2 window:window
usemtl initialShadingGroup
f 1/1/1 2/2/2 4/3/3 3/4/4
f 3/5/5 4/6/6 6/7/7 5/8/8
f 5/9/9 6/10/10 8/11/11 7/12/12
f 7/13/13 8/14/14 2/15/15 1/16/16
f 2/17/17 8/18/18 6/19/19 4/20/20
f 7/21/21 1/22/22 3/23/23 5/24/24
g default
v 67.061646 10.283856 17.718750
v 67.169861 10.283856 17.718750
v 67.061646 27.908676 17.718750
v 67.169861 27.908676 17.718750
v 67.061646 27.908676 -18.369385
v 67.169861 27.908676 -18.369385
v 67.061646 10.283856 -18.369385
v 67.169861 10.283856 -18.369385
vt 0.001891 0.001993
vt 0.331371 0.001993
vt 0.331371 0.331473
vt 0.001891 0.331473
vt 0.338707 0.001991
vt 0.668187 0.001991
vt 0.668187 0.331472
vt 0.338707 0.331472
vt 0.617663 0.335260
vt 0.947143 0.335260
vt 0.947143 0.664740
vt 0.617663 0.664740
vt 0.282361 0.335260
vt 0.611841 0.335260
vt 0.611841 0.664740
vt 0.282361 0.664740
vt 0.001891 0.668528
vt 0.331371 0.668528
vt 0.331371 0.998008
vt 0.001891 0.998008
vt 0.338707 0.668528
vt 0.668187 0.668528
vt 0.668187 0.998008
vt 0.338707 0.998008
vn 0.000000 0.000000 1.000000
vn 0.000000 0.000000 1.000000
vn 0.000000 0.000000 1.000000
vn 0.000000 0.000000 1.000000
vn 0.000000 1.000000 0.000000
vn 0.000000 1.000000 0.000000
vn 0.000000 1.000000 0.000000
vn 0.000000 1.000000 0.000000
vn 0.000000 0.000000 -1.000000
vn 0.000000 0.000000 -1.000000
vn 0.000000 0.000000 -1.000000
vn 0.000000 0.000000 -1.000000
vn 0.000000 -1.000000 0.000000
vn 0.000000 -1.000000 0.000000
vn 0.000000 -1.000000 0.000000
vn 0.000000 -1.000000 0.000000
vn 1.000000 0.000000 0.000000
vn 1.000000 0.000000 0.000000
vn 1.000000 0.000000 0.000000
vn 1.000000 0.000000 0.000000
vn -1.000000 0.000000 0.000000
vn -1.000000 0.000000 0.000000
vn -1.000000 0.000000 0.000000
vn -1.000000 0.000000 0.000000
s off
g window:window polySurface1
usemtl initialShadingGroup
f 9/25/25 10/26/26 12/27/27 11/28/28
f 11/29/29 12/30/30 14/31/31 13/32/32
f 13/33/33 14/34/34 16/35/35 15/36/36
f 15/37/37 16/38/38 10/39/39 9/40/40
f 10/41/41 16/42/42 14/43/43 12/44/44
f 15/45/45 9/46/46 11/47/47 13/48/48
g default
v 66.668564 10.283875 17.597082
v 66.668564 10.283875 -18.284678
v 66.668564 27.858276 -18.284674
v 66.668564 27.858276 17.597086
v 67.598526 10.283875 17.597082
v 67.598526 10.283875 -18.284678
v 67.598526 27.858276 -18.284674
v 67.598526 27.858276 17.597086
v 67.598526 8.925903 18.782419
v 67.598526 8.925903 -19.470015
v 67.598526 29.216187 -19.470011
v 67.598526 29.216187 18.782419
v 66.668564 8.925903 18.782419
v 66.668564 8.925903 -19.470015
v 66.668564 29.216187 -19.470011
v 66.668564 29.216187 18.782419
vt 0.789564 0.586312
vt 0.789564 0.001754
vt 0.879126 0.001754
vt 0.879126 0.586312
vt 0.717053 0.878843
vt 0.717053 0.628925
vt 0.806615 0.628925
vt 0.806615 0.878843
vt 0.887011 0.586312
vt 0.887011 0.001754
vt 0.976573 0.001754
vt 0.976573 0.586312
vt 0.710918 0.628925
vt 0.710918 0.878843
vt 0.621356 0.878843
vt 0.621356 0.628925
vt 0.271221 0.605623
vt 0.271221 0.021065
vt 0.290531 0.001755
vt 0.290531 0.624934
vt 0.021303 0.605623
vt 0.001992 0.624934
vt 0.021303 0.021065
vt 0.001992 0.001755
vt 0.387990 0.001754
vt 0.387990 0.624933
vt 0.298428 0.624933
vt 0.298428 0.001754
vt 0.908446 0.878843
vt 0.908446 0.590303
vt 0.998008 0.590303
vt 0.998008 0.878843
vt 0.485437 0.001754
vt 0.485437 0.624933
vt 0.395875 0.624933
vt 0.395875 0.001754
vt 0.902312 0.590304
vt 0.902312 0.878843
vt 0.812750 0.878843
vt 0.812750 0.590304
vt 0.781862 0.001754
vt 0.781862 0.624933
vt 0.762552 0.605623
vt 0.762552 0.021065
vt 0.493323 0.001754
vt 0.512634 0.021065
vt 0.493323 0.624933
vt 0.512634 0.605623
vn 0.000000 1.000000 0.000000
vn 0.000000 1.000000 0.000000
vn 0.000000 1.000000 0.000000
vn 0.000000 1.000000 0.000000
vn 0.000000 -0.000000 1.000000
vn 0.000000 -0.000000 1.000000
vn 0.000000 -0.000000 1.000000
vn 0.000000 -0.000000 1.000000
vn 0.000000 -1.000000 0.000000
vn 0.000000 -1.000000 0.000000
vn 0.000000 -1.000000 0.000000
vn 0.000000 -1.000000 0.000000
vn 0.000000 0.000000 -1.000000
vn 0.000000 0.000000 -1.000000
vn 0.000000 0.000000 -1.000000
vn 0.000000 0.000000 -1.000000
vn 1.000000 0.000004 0.000000
vn 1.000000 0.000004 0.000000
vn 1.000000 0.000004 0.000000
vn 1.000000 0.000004 0.000000
vn 1.000000 -0.000004 0.000000
vn 1.000000 0.000004 0.000000
vn 1.000000 0.000004 0.000000
vn 1.000000 -0.000004 0.000000
vn 1.000000 -0.000004 0.000000
vn 1.000000 -0.000004 0.000000
vn 1.000000 -0.000004 0.000000
vn 1.000000 -0.000004 0.000000
vn 1.000000 0.000004 0.000000
vn 1.000000 -0.000004 0.000000
vn 1.000000 -0.000004 0.000000
vn 1.000000 0.000004 0.000000
vn 0.000000 -1.000000 0.000000
vn 0.000000 -1.000000 0.000000
vn 0.000000 -1.000000 0.000000
vn 0.000000 -1.000000 0.000000
vn 0.000000 0.000000 -1.000000
vn 0.000000 0.000000 -1.000000
vn 0.000000 0.000000 -1.000000
vn 0.000000 0.000000 -1.000000
vn 0.000000 1.000000 0.000000
vn 0.000000 1.000000 0.000000
vn 0.000000 1.000000 0.000000
vn 0.000000 1.000000 0.000000
vn 0.000000 0.000000 1.000000
vn 0.000000 0.000000 1.000000
vn 0.000000 0.000000 1.000000
vn 0.000000 0.000000 1.000000
vn -1.000000 -0.000001 0.000000
vn -1.000000 0.000000 0.000000
vn -1.000000 0.000000 0.000000
vn -1.000000 -0.000001 0.000000
vn -1.000000 0.000001 0.000000
vn -1.000000 -0.000001 0.000000
vn -1.000000 -0.000001 0.000000
vn -1.000000 0.000001 0.000000
vn -1.000000 0.000001 0.000000
vn -1.000000 0.000001 0.000000
vn -1.000000 0.000001 0.000000
vn -1.000000 0.000001 0.000000
vn -1.000000 0.000000 0.000000
vn -1.000000 0.000001 0.000000
vn -1.000000 0.000001 0.000000
vn -1.000000 0.000000 0.000000
s off
g polySurface2 window:window polySurface5 polySurface4
usemtl initialShadingGroup
f 18/49/49 17/50/50 21/51/51 22/52/52
f 19/53/53 18/54/54 22/55/55 23/56/56
f 20/57/57 19/58/58 23/59/59 24/60/60
f 17/61/61 20/62/62 24/63/63 21/64/64
f 22/65/65 21/66/66 25/67/67 26/68/68
f 23/69/69 22/65/70 26/68/71 27/70/72
f 24/71/73 23/69/74 27/70/75 28/72/76
f 21/66/77 24/71/78 28/72/79 25/67/80
f 26/73/81 25/74/82 29/75/83 30/76/84
f 27/77/85 26/78/86 30/79/87 31/80/88
f 28/81/89 27/82/90 31/83/91 32/84/92
f 25/85/93 28/86/94 32/87/95 29/88/96
f 30/89/97 29/90/98 17/91/99 18/92/100
f 31/93/101 30/89/102 18/92/103 19/94/104
f 32/95/105 31/93/106 19/94/107 20/96/108
f 29/90/109 32/95/110 20/96/111 17/91/112
g default
v 64.683090 -9.527344 19.032883
v 64.683090 -9.527344 -19.858341
v 64.683090 29.363892 -19.858335
v 64.683090 29.363892 19.032887
v 68.614059 -9.527344 19.032883
v 68.614059 -9.527344 -19.858341
v 68.614059 29.363892 -19.858335
v 68.614059 29.363892 19.032887
v 68.614059 -10.812012 20.317635
v 68.614059 -10.812012 -21.143093
v 68.614059 30.648743 -21.143087
v 68.614059 30.648743 20.317635
v 64.683090 -10.812012 20.317635
v 64.683090 -10.812012 -21.143093
v 64.683090 30.648743 -21.143087
v 64.683090 30.648743 20.317635
v 69.383408 -10.812012 20.317635
v 69.383408 -10.812012 -21.143093
v 63.913757 -10.812012 20.317635
v 63.913757 -10.812012 -21.143093
v 69.383408 30.648743 -21.143089
v 63.913757 30.648743 -21.143089
v 69.383408 30.648743 20.317635
v 63.913757 30.648743 20.317635
v 69.383408 -12.292786 21.798424
v 69.383408 -12.292786 -22.623882
v 63.913757 -12.292786 21.798424
v 63.913757 -12.292786 -22.623882
v 69.383408 32.129517 -22.623878
v 63.913757 32.129517 -22.623878
v 69.383408 32.129517 21.798424
v 63.913757 32.129517 21.798424
v 65.467560 -8.593811 17.494316
v 65.467560 -8.593811 -18.387445
v 65.467560 8.980591 -18.387442
v 65.467560 8.980591 17.494318
v 66.397507 -8.593811 17.494316
v 66.397507 -8.593811 -18.387445
v 66.397507 8.980591 -18.387442
v 66.397507 8.980591 17.494318
v 66.397507 -9.951782 18.679651
v 66.397507 -9.951782 -19.572781
v 66.397507 10.338501 -19.572777
v 66.397507 10.338501 18.679651
v 65.467560 -9.951782 18.679651
v 65.467560 -9.951782 -19.572781
v 65.467560 10.338501 -19.572777
v 65.467560 10.338501 18.679651
vt 0.078549 0.222907
vt 0.078549 0.004254
vt 0.100650 0.004254
vt 0.100650 0.222907
vt 0.128285 0.222906
vt 0.128285 0.004253
vt 0.150386 0.004253
vt 0.150386 0.222906
vt 0.103417 0.221793
vt 0.103417 0.003140
vt 0.125518 0.003140
vt 0.125518 0.221793
vt 0.175254 0.003141
vt 0.175254 0.221793
vt 0.153154 0.221793
vt 0.153154 0.003141
vt 0.918843 0.341691
vt 0.702821 0.341691
vt 0.695685 0.334555
vt 0.925979 0.334555
vt 0.918843 0.557712
vt 0.925979 0.564849
vt 0.702821 0.557712
vt 0.695685 0.564849
vt 0.000405 0.999501
vt 0.000397 0.749750
vt 0.031149 0.749750
vt 0.031156 0.999500
vt 0.000391 0.250250
vt 0.000391 0.000500
vt 0.031143 0.000500
vt 0.031143 0.250250
vt 0.000393 0.500000
vt 0.031144 0.500000
vt 0.998007 0.001992
vt 0.998007 0.998008
vt 0.967146 0.967144
vt 0.967146 0.032856
vt 0.001992 0.001992
vt 0.032859 0.032856
vt 0.001992 0.998008
vt 0.032859 0.967145
vt 0.059010 0.237341
vt 0.059010 0.004246
vt 0.063335 0.004246
vt 0.063335 0.237341
vt 0.075769 0.004244
vt 0.075769 0.237339
vt 0.071444 0.237339
vt 0.071444 0.004244
vt 0.053681 0.237342
vt 0.053681 0.004246
vt 0.058006 0.004246
vt 0.058006 0.237342
vt 0.036690 0.004248
vt 0.036690 0.237345
vt 0.032365 0.237345
vt 0.032365 0.004248
vt 0.043023 0.237344
vt 0.043023 0.004248
vt 0.047348 0.004248
vt 0.047348 0.237344
vt 0.052677 0.004248
vt 0.052677 0.237344
vt 0.048352 0.237344
vt 0.048352 0.004248
vt 0.068664 0.004245
vt 0.068664 0.237340
vt 0.064338 0.237340
vt 0.064338 0.004245
vt 0.037694 0.237345
vt 0.037694 0.004248
vt 0.042019 0.004248
vt 0.042019 0.237345
vt 0.683570 0.343959
vt 0.453277 0.343959
vt 0.445052 0.335734
vt 0.691795 0.335734
vt 0.435096 0.342780
vt 0.204803 0.342780
vt 0.196578 0.334555
vt 0.443321 0.334555
vt 0.683570 0.574252
vt 0.691795 0.582477
vt 0.204803 0.573073
vt 0.196578 0.581298
vt 0.453277 0.574252
vt 0.445052 0.582477
vt 0.435096 0.573073
vt 0.443321 0.581298
vt 0.789564 0.586312
vt 0.789564 0.001754
vt 0.879126 0.001754
vt 0.879126 0.586312
vt 0.717053 0.878843
vt 0.717053 0.628925
vt 0.806615 0.628925
vt 0.806615 0.878843
vt 0.887011 0.586312
vt 0.887011 0.001754
vt 0.976573 0.001754
vt 0.976573 0.586312
vt 0.710918 0.628925
vt 0.710918 0.878843
vt 0.621356 0.878843
vt 0.621356 0.628925
vt 0.271221 0.605623
vt 0.271221 0.021065
vt 0.290531 0.001755
vt 0.290531 0.624934
vt 0.021303 0.605623
vt 0.001992 0.624934
vt 0.021303 0.021065
vt 0.001992 0.001755
vt 0.387990 0.001754
vt 0.387990 0.624933
vt 0.298428 0.624933
vt 0.298428 0.001754
vt 0.908446 0.878843
vt 0.908446 0.590303
vt 0.998008 0.590303
vt 0.998008 0.878843
vt 0.485437 0.001754
vt 0.485437 0.624933
vt 0.395875 0.624933
vt 0.395875 0.001754
vt 0.902312 0.590304
vt 0.902312 0.878843
vt 0.812750 0.878843
vt 0.812750 0.590304
vt 0.781862 0.001754
vt 0.781862 0.624933
vt 0.762552 0.605623
vt 0.762552 0.021065
vt 0.493323 0.001754
vt 0.512634 0.021065
vt 0.493323 0.624933
vt 0.512634 0.605623
vn 0.000000 1.000000 0.000000
vn 0.000000 1.000000 0.000000
vn 0.000000 1.000000 0.000000
vn 0.000000 1.000000 0.000000
vn 0.000000 -0.000000 1.000000
vn 0.000000 -0.000000 1.000000
vn 0.000000 -0.000000 1.000000
vn 0.000000 -0.000000 1.000000
vn 0.000000 -1.000000 0.000000
vn 0.000000 -1.000000 0.000000
vn 0.000000 -1.000000 0.000000
vn 0.000000 -1.000000 0.000000
vn 0.000000 0.000000 -1.000000
vn 0.000000 0.000000 -1.000000
vn 0.000000 0.000000 -1.000000
vn 0.000000 0.000000 -1.000000
vn 1.000000 0.000000 0.000000
vn 1.000000 0.000000 0.000000
vn 1.000000 0.000000 0.000000
vn 1.000000 0.000000 0.000000
vn 1.000000 -0.000000 0.000000
vn 1.000000 0.000000 0.000000
vn 1.000000 0.000000 0.000000
vn 1.000000 -0.000000 0.000000
vn 1.000000 -0.000000 0.000000
vn 1.000000 -0.000000 0.000000
vn 1.000000 -0.000000 0.000000
vn 1.000000 -0.000000 0.000000
vn 1.000000 0.000000 0.000000
vn 1.000000 -0.000000 0.000000
vn 1.000000 -0.000000 0.000000
vn 1.000000 0.000000 0.000000
vn 0.000000 -1.000000 0.000000
vn 0.000000 -1.000000 0.000000
vn 0.000000 -1.000000 0.000000
vn 0.000000 -1.000000 0.000000
vn 0.000000 0.000000 -1.000000
vn 0.000000 0.000000 -1.000000
vn 0.000000 0.000000 -1.000000
vn 0.000000 0.000000 -1.000000
vn 0.000000 1.000000 0.000000
vn 0.000000 1.000000 0.000000
vn 0.000000 1.000000 0.000000
vn 0.000000 1.000000 0.000000
vn 0.000000 0.000000 1.000000
vn 0.000000 0.000000 1.000000
vn 0.000000 0.000000 1.000000
vn 0.000000 0.000000 1.000000
vn -1.000000 0.000000 0.000000
vn -1.000000 0.000000 0.000000
vn -1.000000 0.000000 0.000000
vn -1.000000 0.000000 0.000000
vn -1.000000 0.000005 0.000000
vn -1.000000 0.000000 0.000000
vn -1.000000 0.000000 0.000000
vn -1.000000 0.000005 0.000000
vn -1.000000 0.000005 0.000000
vn -1.000000 0.000005 0.000000
vn -1.000000 0.000005 0.000000
vn -1.000000 0.000005 0.000000
vn -1.000000 0.000000 0.000000
vn -1.000000 0.000005 0.000000
vn -1.000000 0.000005 0.000000
vn -1.000000 0.000000 0.000000
vn 0.000000 1.000000 0.000000
vn 0.000000 1.000000 0.000000
vn 0.000000 1.000000 0.000000
vn 0.000000 1.000000 0.000000
vn 0.000000 1.000000 0.000000
vn 0.000000 1.000000 0.000000
vn 0.000000 1.000000 0.000000
vn 0.000000 1.000000 0.000000
vn 0.000002 -0.000000 1.000000
vn 0.000002 -0.000000 1.000000
vn 0.000002 -0.000000 1.000000
vn 0.000002 -0.000000 1.000000
vn -0.000002 0.000000 1.000000
vn -0.000002 0.000000 1.000000
vn -0.000002 0.000000 1.000000
vn -0.000002 0.000000 1.000000
vn 0.000000 -1.000000 0.000000
vn 0.000000 -1.000000 0.000000
vn 0.000000 -1.000000 0.000000
vn 0.000000 -1.000000 0.000000
vn 0.000000 -1.000000 0.000000
vn 0.000000 -1.000000 0.000000
vn 0.000000 -1.000000 0.000000
vn 0.000000 -1.000000 0.000000
vn 0.000000 0.000000 -1.000000
vn 0.000000 0.000000 -1.000000
vn 0.000000 0.000000 -1.000000
vn 0.000000 0.000000 -1.000000
vn 0.000000 0.000000 -1.000000
vn 0.000000 0.000000 -1.000000
vn 0.000000 0.000000 -1.000000
vn 0.000000 0.000000 -1.000000
vn 1.000000 0.000004 0.000000
vn 1.000000 0.000004 0.000000
vn 1.000000 0.000004 0.000000
vn 1.000000 0.000004 0.000000
vn -1.000000 0.000007 0.000000
vn -1.000000 0.000007 0.000000
vn -1.000000 0.000007 0.000000
vn -1.000000 0.000007 0.000000
vn 1.000000 0.000000 0.000000
vn 1.000000 0.000000 0.000000
vn 1.000000 0.000000 0.000000
vn 1.000000 0.000000 0.000000
vn -1.000000 0.000000 0.000000
vn -1.000000 0.000000 0.000000
vn -1.000000 0.000000 0.000000
vn -1.000000 0.000000 0.000000
vn 1.000000 -0.000004 0.000000
vn 1.000000 -0.000004 0.000000
vn 1.000000 -0.000004 0.000000
vn 1.000000 -0.000004 0.000000
vn -1.000000 0.000001 0.000000
vn -1.000000 0.000001 0.000000
vn -1.000000 0.000001 0.000000
vn -1.000000 0.000001 0.000000
vn 1.000000 0.000000 0.000000
vn 1.000000 0.000000 0.000000
vn 1.000000 0.000000 0.000000
vn 1.000000 0.000000 0.000000
vn -1.000000 0.000000 0.000000
vn -1.000000 0.000000 0.000000
vn -1.000000 0.000000 0.000000
vn -1.000000 0.000000 0.000000
vn 0.000000 1.000000 0.000000
vn 0.000000 1.000000 0.000000
vn 0.000000 1.000000 0.000000
vn 0.000000 1.000000 0.000000
vn 0.000000 -0.000000 1.000000
vn 0.000000 -0.000000 1.000000
vn 0.000000 -0.000000 1.000000
vn 0.000000 -0.000000 1.000000
vn 0.000000 -1.000000 0.000000
vn 0.000000 -1.000000 0.000000
vn 0.000000 -1.000000 0.000000
vn 0.000000 -1.000000 0.000000
vn 0.000000 0.000000 -1.000000
vn 0.000000 0.000000 -1.000000
vn 0.000000 0.000000 -1.000000
vn 0.000000 0.000000 -1.000000
vn 1.000000 0.000011 0.000000
vn 1.000000 0.000010 0.000000
vn 1.000000 0.000011 0.000000
vn 1.000000 0.000011 0.000000
vn 1.000000 -0.000001 0.000000
vn 1.000000 0.000011 0.000000
vn 1.000000 0.000011 0.000000
vn 1.000000 -0.000001 0.000000
vn 1.000000 -0.000001 0.000000
vn 1.000000 -0.000001 0.000000
vn 1.000000 -0.000001 0.000000
vn 1.000000 -0.000001 0.000000
vn 1.000000 0.000010 0.000000
vn 1.000000 -0.000001 0.000000
vn 1.000000 -0.000001 0.000000
vn 1.000000 0.000011 0.000000
vn 0.000000 -1.000000 0.000000
vn 0.000000 -1.000000 0.000000
vn 0.000000 -1.000000 0.000000
vn 0.000000 -1.000000 0.000000
vn 0.000000 0.000000 -1.000000
vn 0.000000 0.000000 -1.000000
vn 0.000000 0.000000 -1.000000
vn 0.000000 0.000000 -1.000000
vn 0.000000 1.000000 0.000000
vn 0.000000 1.000000 0.000000
vn 0.000000 1.000000 0.000000
vn 0.000000 1.000000 0.000000
vn 0.000000 0.000000 1.000000
vn 0.000000 0.000000 1.000000
vn 0.000000 0.000000 1.000000
vn 0.000000 0.000000 1.000000
vn -1.000000 -0.000008 0.000000
vn -1.000000 -0.000008 0.000000
vn -1.000000 -0.000007 0.000000
vn -1.000000 -0.000007 0.000000
vn -1.000000 -0.000002 0.000000
vn -1.000000 -0.000008 0.000000
vn -1.000000 -0.000007 0.000000
vn -1.000000 -0.000002 0.000000
vn -1.000000 -0.000002 0.000000
vn -1.000000 -0.000002 0.000000
vn -1.000000 -0.000002 0.000000
vn -1.000000 -0.000002 0.000000
vn -1.000000 -0.000008 0.000000
vn -1.000000 -0.000002 0.000000
vn -1.000000 -0.000002 0.000000
vn -1.000000 -0.000007 0.000000
s off
g polySurface2 window:window polySurface4 polySurface6
usemtl initialShadingGroup
f 34/97/113 33/98/114 37/99/115 38/100/116
f 35/101/117 34/102/118 38/103/119 39/104/120
f 36/105/121 35/106/122 39/107/123 40/108/124
f 33/109/125 36/110/126 40/111/127 37/112/128
f 38/113/129 37/114/130 41/115/131 42/116/132
f 39/117/133 38/113/134 42/116/135 43/118/136
f 40/119/137 39/117/138 43/118/139 44/120/140
f 37/114/141 40/119/142 44/120/143 41/115/144
f 58/121/145 57/122/146 59/123/147 60/124/148
f 61/125/149 58/126/150 60/127/151 62/128/152
f 63/129/153 61/125/154 62/128/155 64/130/156
f 57/122/157 63/129/158 64/130/159 59/123/160
f 46/131/161 45/132/162 33/133/163 34/134/164
f 47/135/165 46/131/166 34/134/167 35/136/168
f 48/137/169 47/135/170 35/136/171 36/138/172
f 45/132/173 48/137/174 36/138/175 33/133/176
f 42/139/177 41/140/178 49/141/179 50/142/180
f 45/143/181 46/144/182 52/145/183 51/146/184
f 43/147/185 42/148/186 50/149/187 53/150/188
f 46/151/189 47/152/190 54/153/191 52/154/192
f 44/155/193 43/156/194 53/157/195 55/158/196
f 47/159/197 48/160/198 56/161/199 54/162/200
f 41/163/201 44/164/202 55/165/203 49/166/204
f 48/167/205 45/168/206 51/169/207 56/170/208
f 50/171/209 49/172/210 57/173/211 58/174/212
f 51/175/213 52/176/214 60/177/215 59/178/216
f 53/179/217 50/171/218 58/174/219 61/180/220
f 52/176/221 54/181/222 62/182/223 60/177/224
f 55/183/225 53/179/226 61/180/227 63/184/228
f 54/181/229 56/185/230 64/186/231 62/182/232
f 49/172/233 55/183/234 63/184/235 57/173/236
f 56/185/237 51/175/238 59/178/239 64/186/240
f 66/187/241 65/188/242 69/189/243 70/190/244
f 67/191/245 66/192/246 70/193/247 71/194/248
f 68/195/249 67/196/250 71/197/251 72/198/252
f 65/199/253 68/200/254 72/201/255 69/202/256
f 70/203/257 69/204/258 73/205/259 74/206/260
f 71/207/261 70/203/262 74/206/263 75/208/264
f 72/209/265 71/207/266 75/208/267 76/210/268
f 69/204/269 72/209/270 76/210/271 73/205/272
f 74/211/273 73/212/274 77/213/275 78/214/276
f 75/215/277 74/216/278 78/217/279 79/218/280
f 76/219/281 75/220/282 79/221/283 80/222/284
f 73/223/285 76/224/286 80/225/287 77/226/288
f 78/227/289 77/228/290 65/229/291 66/230/292
f 79/231/293 78/227/294 66/230/295 67/232/296
f 80/233/297 79/231/298 67/232/299 68/234/300
f 77/228/301 80/233/302 68/234/303 65/229/304
